<svg id="Layer_1" data-name="Layer 1" xmlns="http://www.w3.org/2000/svg" width="48" height="48" viewBox="0 0 48 48"><defs><style>.cls-1{fill:#ffd434;}.cls-2{fill:#fff;}</style></defs><rect class="cls-1" width="48" height="48" rx="6.3"/><path class="cls-2" d="M41.23,22.85a1.1,1.1,0,0,1,.83.34,1.19,1.19,0,0,1,0,1.62,1.1,1.1,0,0,1-.83.34H35.88a1.07,1.07,0,0,1-.81-.34,1.13,1.13,0,0,1,0-1.62,1.07,1.07,0,0,1,.81-.34ZM41.05,31a1.67,1.67,0,0,1,.41.43,1,1,0,0,1,.17.58,1.11,1.11,0,0,1-.35.81,1.07,1.07,0,0,1-.81.34,1.13,1.13,0,0,1-.3,0,.85.85,0,0,1-.27-.1l-4.63-2.7h0a1,1,0,0,1-.4-.41,1.33,1.33,0,0,1-.14-.6,1.13,1.13,0,0,1,.32-.8,1.09,1.09,0,0,1,.83-.34.77.77,0,0,1,.29.05l.28.12ZM36.41,19.62a1.69,1.69,0,0,1-.28.12.79.79,0,0,1-.29.06,1.12,1.12,0,0,1-.83-.34,1.17,1.17,0,0,1-.32-.81,1.25,1.25,0,0,1,.14-.59.94.94,0,0,1,.44-.42L39.9,15a.67.67,0,0,1,.27-.11,1.77,1.77,0,0,1,.3,0A1.18,1.18,0,0,1,41.63,16a1,1,0,0,1-.17.58,1.67,1.67,0,0,1-.41.43Zm-6.32-8.09a2.23,2.23,0,0,1,.34-.12,1.31,1.31,0,0,1,.38-.06,1.52,1.52,0,0,1,1.15.49A1.58,1.58,0,0,1,32.43,13V35A1.58,1.58,0,0,1,32,36.16a1.52,1.52,0,0,1-1.15.49,1.31,1.31,0,0,1-.38-.06,1.5,1.5,0,0,1-.34-.12L16.76,29.39a1.22,1.22,0,0,1-.3-.34.71.71,0,0,1-.13-.41V19.37a.72.72,0,0,1,.13-.42,1.38,1.38,0,0,1,.3-.34ZM14,19a.7.7,0,0,1,.54.23.81.81,0,0,1,.21.56v8.41a.79.79,0,0,1-.21.55A.71.71,0,0,1,14,29H12.48v5a1.89,1.89,0,0,1-.55,1.37,1.85,1.85,0,0,1-1.35.57,1.81,1.81,0,0,1-1.35-.57A1.89,1.89,0,0,1,8.68,34V29H7.92a2.16,2.16,0,0,1-1.63-.69,2.2,2.2,0,0,1-.67-1.61V21.31A2.3,2.3,0,0,1,7.92,19Z"/></svg>
