<svg id="Layer_1" data-name="Layer 1" xmlns="http://www.w3.org/2000/svg" width="48" height="48" viewBox="0 0 48 48"><defs><style>.cls-1{fill:#5091cd;}.cls-2{fill:#fff;}</style></defs><rect class="cls-1" width="48" height="48" rx="6.3"/><path class="cls-2" d="M28.55,10.9a3.14,3.14,0,1,0-2,4A3.14,3.14,0,0,0,28.55,10.9Z"/><path class="cls-2" d="M21.44,27.17l3.08-6.11A3.8,3.8,0,0,0,22.84,16l-2-1a1.54,1.54,0,0,0-.34-.12,11.11,11.11,0,0,0-14.35,5.1A1.62,1.62,0,0,0,9,21.4a7.88,7.88,0,0,1,8-4.22L5.36,40.07a1.63,1.63,0,0,0,.72,2.2,1.62,1.62,0,0,0,.74.18,1.65,1.65,0,0,0,1.46-.9l7.09-13.9,3.51,1.77a7.94,7.94,0,0,1,3.25,10.63,1.64,1.64,0,0,0,.7,2.21,1.63,1.63,0,0,0,2.21-.7A11.22,11.22,0,0,0,21.44,27.17Z"/><path class="cls-2" d="M42.46,23.12,37,17.67a1.22,1.22,0,0,0-1.72,1.72L38.7,22.8H28.31a1.18,1.18,0,0,0,0,2.36H38.7l-3.41,3.41a1.23,1.23,0,0,0,0,1.72,1.23,1.23,0,0,0,1.72,0l5.45-5.45a1.21,1.21,0,0,0,0-1.72Z"/><path class="cls-2" d="M31.45,27.51a1.17,1.17,0,0,0-1.18,1.17V32.6a1.18,1.18,0,1,0,2.35,0V28.68A1.17,1.17,0,0,0,31.45,27.51Z"/><path class="cls-2" d="M31.45,20.45a1.17,1.17,0,0,0,1.17-1.17V15.35a1.18,1.18,0,0,0-2.35,0v3.93A1.18,1.18,0,0,0,31.45,20.45Z"/><path class="cls-2" d="M31.45,11.83a1.17,1.17,0,0,0,1.17-1.18V6.73a1.18,1.18,0,1,0-2.35,0v3.92A1.18,1.18,0,0,0,31.45,11.83Z"/><path class="cls-2" d="M31.45,36.13a1.18,1.18,0,0,0-1.18,1.18v3.92a1.18,1.18,0,0,0,2.35,0V37.31A1.17,1.17,0,0,0,31.45,36.13Z"/></svg>
