<svg id="Layer_1" data-name="Layer 1" xmlns="http://www.w3.org/2000/svg" width="48" height="48" viewBox="0 0 48 48"><defs><style>.cls-1{fill:#a7d16f;}.cls-2{fill:#fff;}</style></defs><rect class="cls-1" width="48" height="48" rx="6.3"/><path class="cls-2" d="M21.23,13.49,27.76,20a1.08,1.08,0,0,0,.8.32,1,1,0,0,0,.72-.29l9.86-9.85v4.66a1.1,1.1,0,1,0,2.19,0V7.55a1.09,1.09,0,0,0-1.1-1.09H32.92a1.1,1.1,0,0,0,0,2.19h4.67l-9.05,9-6.49-6.49a1.1,1.1,0,0,0-.82-.32,1.07,1.07,0,0,0-.82.32L6.56,25.05a1.11,1.11,0,0,0,0,1.55,1.09,1.09,0,0,0,1.55,0Z"/><path class="cls-2" d="M40.71,24.73H14.17a.63.63,0,0,0-.62.63v1.56H38.44a.7.7,0,0,1,.7.7V37.89h1.57a.62.62,0,0,0,.62-.62V25.36A.63.63,0,0,0,40.71,24.73Z"/><path class="cls-2" d="M37.05,28.39H10.52A.62.62,0,0,0,9.9,29V40.92a.62.62,0,0,0,.62.62H37.05a.63.63,0,0,0,.63-.62V29A.62.62,0,0,0,37.05,28.39Zm-22.77,8A1.47,1.47,0,1,1,15.75,35,1.47,1.47,0,0,1,14.28,36.43Zm9.51,2.92A4.39,4.39,0,1,1,28.17,35,4.4,4.4,0,0,1,23.79,39.35Zm9.5-2.92A1.47,1.47,0,1,1,34.75,35,1.47,1.47,0,0,1,33.29,36.43Z"/></svg>
