<svg id="Layer_1" data-name="Layer 1" xmlns="http://www.w3.org/2000/svg" width="48" height="48" viewBox="0 0 48 48"><defs><style>.cls-1{fill:#81ac32;}.cls-2{fill:#fff;}</style></defs><rect class="cls-1" width="48" height="48" rx="6.3"/><path class="cls-2" d="M24.72,22.92A16.15,16.15,0,0,0,8.57,6.78H6.78v7.53A16.15,16.15,0,0,0,22.92,30.46h1.8Z"/><path class="cls-2" d="M38.16,6.78A11.28,11.28,0,0,0,26.87,18.07v6.65h3.06A11.29,11.29,0,0,0,41.22,13.43V6.78Z"/><path class="cls-2" d="M28.31,26.87a1.43,1.43,0,0,0-1.44,1.44V36.2a2.16,2.16,0,0,1-2.15,2.15,1.44,1.44,0,1,0,0,2.87,5,5,0,0,0,5-5V28.31A1.43,1.43,0,0,0,28.31,26.87Z"/></svg>