<svg id="Layer_1" data-name="Layer 1" xmlns="http://www.w3.org/2000/svg" width="48" height="48" viewBox="0 0 48 48"><defs><style>.cls-1{fill:#f78e1e;}.cls-2{fill:#fff;}</style></defs><rect class="cls-1" width="48" height="48" rx="6.3"/><path class="cls-2" d="M41.17,27.3a.7.7,0,0,1,.52.21.72.72,0,0,1,.21.53,9.11,9.11,0,0,1-.77,3.77A9.77,9.77,0,0,1,36,37a9.42,9.42,0,0,1-3.77.77H15.78A9.42,9.42,0,0,1,12,37a9.77,9.77,0,0,1-5.14-5.18A9.11,9.11,0,0,1,6.1,28a.72.72,0,0,1,.21-.53.7.7,0,0,1,.52-.21ZM8.37,15.69a1,1,0,0,1-.56-.38,1,1,0,0,1-.21-.63,1,1,0,0,1,.3-.75,1,1,0,0,1,.75-.3h.14a.27.27,0,0,1,.14,0l7.48,2h0A1.19,1.19,0,0,1,17,16a1,1,0,0,1,.23.63,1,1,0,0,1-.32.77,1,1,0,0,1-.73.32l-.14,0-.14,0Zm4.93,3.5a1.14,1.14,0,0,1,.54.39,1,1,0,0,1,.23.66,1,1,0,0,1-.32.74,1,1,0,0,1-.73.31l-.14,0-.14,0L10,20.52a1.25,1.25,0,0,1-.58-.38,1.05,1.05,0,0,1,.09-1.39,1.12,1.12,0,0,1,.77-.29h.14a.18.18,0,0,1,.11,0Zm-1.08-6.85h0a1.14,1.14,0,0,1-.54-.39,1,1,0,0,1-.23-.63,1.09,1.09,0,0,1,.31-.77,1,1,0,0,1,.74-.31.34.34,0,0,1,.14,0h.14l2.73.74a1.18,1.18,0,0,1,.57.38,1,1,0,0,1,.23.67,1,1,0,0,1-.31.73,1.06,1.06,0,0,1-.77.32l-.14,0-.11,0Zm9.33,7.41v0a3.72,3.72,0,0,1-1.33,1.95,3.53,3.53,0,0,1-2.27.77,4.45,4.45,0,0,1-.53,0,2.12,2.12,0,0,1-.45-.11l-1.85-.48.14-.5v0a3.66,3.66,0,0,1,1.31-1.94,3.56,3.56,0,0,1,2.29-.79,2.77,2.77,0,0,1,.49,0,4.26,4.26,0,0,1,.49.1l1.85.49Zm-1.19-3h0a3.66,3.66,0,0,1-1.94-1.31,3.58,3.58,0,0,1-.79-2.29,3.91,3.91,0,0,1,0-.49,3.1,3.1,0,0,1,.11-.46l.14-.49,1.85.49a3.68,3.68,0,0,1,2,1.31,3.64,3.64,0,0,1,.79,2.29,3.89,3.89,0,0,1,0,.49,2.85,2.85,0,0,1-.1.46l-.14.49ZM21.41,23a3.72,3.72,0,0,1,1.31-2A3.63,3.63,0,0,1,25,20.28a3.91,3.91,0,0,1,.49,0,2.85,2.85,0,0,1,.46.1l1.85.49-.14.49v0a3.7,3.7,0,0,1-3.6,2.73,4,4,0,0,1-.49,0l-.46-.07-1.85-.52Zm5.11-4.69h0a3.67,3.67,0,0,1-2.72-3.6,4.15,4.15,0,0,1,0-.49c0-.16.05-.31.07-.45l.14-.49,1.85.49h0a3.58,3.58,0,0,1,2,1.31,3.66,3.66,0,0,1,.77,2.29,4.22,4.22,0,0,1,0,.49c0,.16,0,.31-.07.45l-.14.53Zm1,6.33a3.93,3.93,0,0,1,1.33-2,3.53,3.53,0,0,1,2.27-.78,4.45,4.45,0,0,1,.53,0,3,3,0,0,1,.45.11l1.86.49-.15.49v0a3.46,3.46,0,0,1-1.31,2,3.64,3.64,0,0,1-2.29.77l-.49,0-.48-.08-1.86-.52ZM32.64,20a3.71,3.71,0,0,1-2.77-3.6,2.77,2.77,0,0,1,0-.49,3,3,0,0,1,.1-.45l.14-.49,1.86.49h0A3.66,3.66,0,0,1,34,16.76a3.58,3.58,0,0,1,.79,2.29,2.63,2.63,0,0,1,0,.49,2.84,2.84,0,0,1-.1.49l-.11.49Zm7.72,3.19a.84.84,0,0,1-.36.56,1.12,1.12,0,0,1-.65.21h-.14a.37.37,0,0,1-.14,0l-3.74-1,.56-2.06,3.74,1a1,1,0,0,1,.56.38,1,1,0,0,1,.21.63V23A.27.27,0,0,1,40.36,23.18Z"/></svg>