<svg id="Layer_1" data-name="Layer 1" xmlns="http://www.w3.org/2000/svg" width="48" height="48" viewBox="0 0 48 48"><defs><style>.cls-1{fill:#a78db6;}.cls-2{fill:#fff;}</style></defs><rect class="cls-1" width="48" height="48" rx="6.3"/><path class="cls-2" d="M10.86,14.21a1.13,1.13,0,0,1,.37.87,1.14,1.14,0,0,1-.37.87,1.2,1.2,0,0,1-.86.34H6.76A1.15,1.15,0,0,1,5.91,16a1.2,1.2,0,0,1-.35-.87,1.18,1.18,0,0,1,.35-.87,1.15,1.15,0,0,1,.85-.35H10A1.21,1.21,0,0,1,10.86,14.21Zm1.56-4a1.14,1.14,0,0,1,.31.54,1.3,1.3,0,0,1,0,.62,1.06,1.06,0,0,1-.31.54,1.13,1.13,0,0,1-.54.31,1.26,1.26,0,0,1-.61,0,1.13,1.13,0,0,1-.54-.31L8.34,9.51A1.15,1.15,0,0,1,8,8.66a1.17,1.17,0,0,1,.35-.85,1.22,1.22,0,0,1,1.69,0Zm2.34.12a1.1,1.1,0,0,1-.37-.85V6.23a1.21,1.21,0,0,1,.35-.86A1.07,1.07,0,0,1,15.6,5a1.2,1.2,0,0,1,.87.37,1.15,1.15,0,0,1,.35.84V9.47a1.18,1.18,0,0,1-1.2,1.19A1.2,1.2,0,0,1,14.76,10.32Zm.86,7.61a9.4,9.4,0,0,1,3.43-3.43,10.84,10.84,0,0,1,5-1.44V42a1.63,1.63,0,0,1-.54,1,1.58,1.58,0,0,1-1.06.4A1.62,1.62,0,0,1,20.83,42V33.14H19.21a.72.72,0,0,1-.6-.22.66.66,0,0,1-.21-.59l3.24-15.27a5.78,5.78,0,0,0-2.92,2.18,5.87,5.87,0,0,0-1.09,3.45,1.56,1.56,0,0,1-.48,1.14,1.59,1.59,0,0,1-1.14.48,1.64,1.64,0,0,1-1.62-1.62A9.38,9.38,0,0,1,15.62,17.93Zm6.67-11.7A3.18,3.18,0,0,1,24,5v6.44a3.17,3.17,0,0,1-1.74-1.22,3.4,3.4,0,0,1-.65-2A3.33,3.33,0,0,1,22.29,6.23Zm5.11,4a3.26,3.26,0,0,1-1.76,1.22V5A3.26,3.26,0,0,1,27.4,6.23a3.22,3.22,0,0,1,.67,2A3.29,3.29,0,0,1,27.4,10.26Zm3.22,4.24a9.28,9.28,0,0,1,4.66,8.19,1.51,1.51,0,0,1-.54,1,1.58,1.58,0,0,1-2.12,0,1.51,1.51,0,0,1-.54-1,6.27,6.27,0,0,0-3.24-5.63V42a1.62,1.62,0,0,1-1.6,1.39A1.62,1.62,0,0,1,25.64,42V13.06A10.87,10.87,0,0,1,30.62,14.5Z"/></svg>
