<svg id="Layer_1" data-name="Layer 1" xmlns="http://www.w3.org/2000/svg" width="48" height="48" viewBox="0 0 48 48"><defs><style>.cls-1{fill:#fcbc7c;}.cls-2{fill:#fff;}</style></defs><rect class="cls-1" width="48" height="48" rx="6.3"/><path class="cls-2" d="M40.18,39.1a1.07,1.07,0,0,1,.76.32,1.05,1.05,0,0,1,.32.76,1.09,1.09,0,0,1-1.08,1.08H7.82a1.09,1.09,0,0,1-1.08-1.08,1.05,1.05,0,0,1,.32-.76,1.07,1.07,0,0,1,.76-.32Zm-19-1.45H9.61v-18a.64.64,0,0,1,.22-.51.75.75,0,0,1,.52-.2h7.18l5-3.78v-7a1.45,1.45,0,0,1,2.9,0h6.47v4.32H25.45V15.2l5,3.78h7.18a.75.75,0,0,1,.52.2.64.64,0,0,1,.22.51v18H26.86V30.47a1.43,1.43,0,0,0-.42-1,1.35,1.35,0,0,0-1-.42h-2.9a1.39,1.39,0,0,0-1,.42,1.46,1.46,0,0,0-.41,1Zm-5.06-15.1a.73.73,0,0,0-.2-.49.7.7,0,0,0-.51-.22H13.92a.76.76,0,0,0-.71.71v3.61a.67.67,0,0,0,.22.5.7.7,0,0,0,.49.21h1.45a.69.69,0,0,0,.51-.21.69.69,0,0,0,.2-.5Zm0,7.92a.69.69,0,0,0-.2-.5.69.69,0,0,0-.51-.21H13.92a.7.7,0,0,0-.49.21.67.67,0,0,0-.22.5v3.61a.71.71,0,0,0,.22.49.7.7,0,0,0,.49.21h1.45a.69.69,0,0,0,.51-.21.73.73,0,0,0,.2-.49Zm10.78-8.63a2.87,2.87,0,1,0-.84,2A2.76,2.76,0,0,0,26.86,21.84Zm5.06,4.32a.69.69,0,0,0,.2.5.69.69,0,0,0,.51.21h1.45a.66.66,0,0,0,.48-.21.63.63,0,0,0,.22-.5V22.55a.76.76,0,0,0-.7-.71H32.63a.7.7,0,0,0-.51.22.73.73,0,0,0-.2.49Zm0,7.92a.73.73,0,0,0,.2.49.69.69,0,0,0,.51.21h1.45a.66.66,0,0,0,.48-.21.67.67,0,0,0,.22-.49V30.47a.63.63,0,0,0-.22-.5.66.66,0,0,0-.48-.21H32.63a.69.69,0,0,0-.51.21.69.69,0,0,0-.2.5Z"/></svg>
