<svg id="Layer_1" data-name="Layer 1" xmlns="http://www.w3.org/2000/svg" width="48" height="48" viewBox="0 0 48 48"><defs><style>.cls-1{fill:#dc5b40;}.cls-2{fill:#fff;}</style></defs><rect class="cls-1" width="48" height="48" rx="6.3"/><circle class="cls-2" cx="24" cy="24" r="3.61"/><path class="cls-2" d="M24,18.22a2.17,2.17,0,0,0,2.17-2.17V8.82a2.17,2.17,0,0,0-4.34,0v7.23A2.17,2.17,0,0,0,24,18.22Z"/><path class="cls-2" d="M19.74,19.74a2.2,2.2,0,0,0,0-3.11L10.4,7.29A2.2,2.2,0,0,0,7.29,10.4l9.34,9.34A2.2,2.2,0,0,0,19.74,19.74Z"/><rect class="cls-2" x="9.54" y="21.83" width="8.68" height="4.34" rx="2.16"/><path class="cls-2" d="M16.83,28.22,10.15,34.9a2.09,2.09,0,0,0,2.95,3l6.68-6.68a2.09,2.09,0,0,0-3-3Z"/><path class="cls-2" d="M24,29.78A2.17,2.17,0,0,0,21.82,32v7.23a2.17,2.17,0,0,0,4.34,0V32A2.17,2.17,0,0,0,24,29.78Z"/><path class="cls-2" d="M31.2,28.25a2.09,2.09,0,0,0-2.95,2.95L32,34.93A2.09,2.09,0,0,0,34.93,32Z"/><path class="cls-2" d="M39,21.83H32.09A2.24,2.24,0,0,0,29.78,24h0a2.25,2.25,0,0,0,2.31,2.17H39A2.24,2.24,0,0,0,41.35,24h0A2.24,2.24,0,0,0,39,21.83Z"/><path class="cls-2" d="M31.11,19.78l2.4-2.35a2.08,2.08,0,0,0-2.94-2.94l-2.35,2.34a2.09,2.09,0,0,0,0,3A2,2,0,0,0,31.11,19.78Z"/></svg>
