<svg id="Layer_1" data-name="Layer 1" xmlns="http://www.w3.org/2000/svg" width="48" height="48" viewBox="0 0 48 48"><defs><style>.cls-1{fill:#b95380;}.cls-2{fill:#fff;}</style></defs><rect class="cls-1" width="48" height="48" rx="6.3"/><path class="cls-2" d="M20.24,24.25l0,0a7,7,0,0,1-2.52,3.93,7,7,0,0,1-4.51,1.56,6.93,6.93,0,0,1-4.5-1.57,7.22,7.22,0,0,1-2.53-3.95v-.08A.17.17,0,0,1,6.32,24H20a.24.24,0,0,1,.14.05.15.15,0,0,1,.07.12v.08ZM33.7,38.93a1.46,1.46,0,0,1,1.07.44,1.41,1.41,0,0,1,.44,1,1.49,1.49,0,0,1-1.51,1.5H14.3a1.44,1.44,0,0,1-1-.43,1.46,1.46,0,0,1-.43-1.07,1.4,1.4,0,0,1,.43-1,1.45,1.45,0,0,1,1-.44h8.21V11.31H14.82l3.53,8.91a1.66,1.66,0,0,1,.06.21,1.48,1.48,0,0,1,0,.21,1.09,1.09,0,0,1-.31.79,1.07,1.07,0,0,1-.81.33,1.09,1.09,0,0,1-.63-.19,1,1,0,0,1-.38-.51l-3.11-7.83L10.1,21.06a1.16,1.16,0,0,1-.42.51,1.12,1.12,0,0,1-1.42-.14,1.07,1.07,0,0,1-.33-.79.52.52,0,0,1,0-.21A1.72,1.72,0,0,1,8,20.22L12.16,9.8v0a1.07,1.07,0,0,1,.39-.49,1,1,0,0,1,.63-.21h9.33V7.6A1.49,1.49,0,0,1,24,6.1a1.41,1.41,0,0,1,1,.43,1.46,1.46,0,0,1,.44,1.07V9.07h9.33a1,1,0,0,1,.63.21,1.25,1.25,0,0,1,.42.52L40,20.22a1.6,1.6,0,0,1,0,.21,1.49,1.49,0,0,1,0,.21,1.07,1.07,0,0,1-.33.79,1.12,1.12,0,0,1-1.42.14,1.16,1.16,0,0,1-.42-.51l-3.08-7.83-3.07,7.83a1.31,1.31,0,0,1-.42.51,1.09,1.09,0,0,1-.63.19,1.13,1.13,0,0,1-1.12-1.12.75.75,0,0,1,0-.21.8.8,0,0,1,0-.21l3.53-8.91H25.49V38.93Zm8-14.93a.17.17,0,0,1,.17.17v.11a7.07,7.07,0,0,1-2.53,3.93,7,7,0,0,1-4.5,1.56,6.91,6.91,0,0,1-4.49-1.57,7.22,7.22,0,0,1-2.53-3.95v-.08a.16.16,0,0,1,.05-.12A.17.17,0,0,1,28,24Z"/></svg>