<svg id="Layer_1" data-name="Layer 1" xmlns="http://www.w3.org/2000/svg" width="48" height="48" viewBox="0 0 48 48"><defs><style>.cls-1{fill:#00a4b5;}.cls-2{fill:#fff;}</style></defs><rect class="cls-1" width="48" height="48" rx="6.3"/><circle class="cls-2" cx="20.06" cy="13.66" r="4.65"/><path class="cls-2" d="M4.68,35.45a2.18,2.18,0,0,0,2.26,2.18,2.22,2.22,0,0,0,2-2.25,10.43,10.43,0,0,1,4.3-8.48V39.08a2.85,2.85,0,0,0,2.84,2.85H24a2.83,2.83,0,0,0,2-.85.36.36,0,0,0,.11-.26V21.59a16.25,16.25,0,0,0-6.09-1.13C11.28,20.46,4.68,26.86,4.68,35.45Z"/><path class="cls-2" d="M31.64,8.73V8.06a2,2,0,0,0-4,0v31a2.85,2.85,0,0,0,2.84,2.85h1.14V18.31H43.32V8.73Z"/></svg>