<svg id="Layer_1" data-name="Layer 1" xmlns="http://www.w3.org/2000/svg" width="48" height="48" viewBox="0 0 48 48"><defs><style>.cls-1{fill:#e58366;}.cls-2{fill:#fff;}</style></defs><rect class="cls-1" width="48" height="48" rx="6.3"/><path class="cls-2" d="M27,8a2.28,2.28,0,1,0-4.56,0V10.3H27Z"/><path class="cls-2" d="M22.48,25.52H27V24h3.81a6.09,6.09,0,0,0,0-12.18H19.92a3.05,3.05,0,0,0-2-.76h-3.8a3,3,0,0,0-3,3,3,3,0,0,0,3,3h3.8a3.05,3.05,0,0,0,2-.76H30.85a1.52,1.52,0,0,1,0,3H27V17.91H22.48v1.52H20.2a6.09,6.09,0,0,0,0,12.18h7.6a1.52,1.52,0,1,1,0,3H27V33.13H22.48v1.52H21a2.29,2.29,0,1,0,0,4.57h1.52V40a1.94,1.94,0,0,0,.14.76,1.79,1.79,0,0,0,.13.32.75.75,0,0,0,.09.15l.08.12a2.27,2.27,0,0,0,1,.78l.13,0,.16,0a.3.3,0,0,0,.13,0,1.92,1.92,0,0,0,.78,0,.3.3,0,0,0,.13,0,2.23,2.23,0,0,0,1.32-.87l.08-.12a.46.46,0,0,0,.09-.15,3.09,3.09,0,0,0,.14-.32A2.13,2.13,0,0,0,27,40v-.76h.76A6.09,6.09,0,0,0,27.8,27H20.2a1.52,1.52,0,1,1,0-3h2.28ZM14.11,14.11a.76.76,0,1,1,.76-.76A.76.76,0,0,1,14.11,14.11Z"/></svg>
