<svg id="Layer_1" data-name="Layer 1" xmlns="http://www.w3.org/2000/svg" width="48" height="48" viewBox="0 0 48 48"><defs><style>.cls-1{fill:#a99784;}.cls-2{fill:#fff;}</style></defs><rect class="cls-1" width="48" height="48" rx="6.3"/><path class="cls-2" d="M11.72,31.7,6.08,37.34a3.24,3.24,0,0,0,4.58,4.58l5.64-5.64A18.8,18.8,0,0,1,11.72,31.7Z"/><path class="cls-2" d="M27.14,5.14A15.72,15.72,0,1,0,42.86,20.86,15.71,15.71,0,0,0,27.14,5.14Zm8.65,23.72a11.86,11.86,0,0,1-6.29,3.55A11.75,11.75,0,0,1,23.21,32a11.82,11.82,0,0,1-7.85-11.11,11.79,11.79,0,1,1,20.43,8Z"/><path class="cls-2" d="M27.51,23.76V23a.73.73,0,0,0-.73-.73H23.14V20.86a.73.73,0,0,0,.73-.73V19.4h.73a.73.73,0,0,0,.73-.73V17.22h.72a.73.73,0,0,0,.73-.73v-.72a.73.73,0,0,0-.73-.73H22.42V13.59a.73.73,0,0,0-.73-.73H20.1a10.77,10.77,0,0,0-1.32,1.38V15h-.57a10.44,10.44,0,0,0-1.07,2.14.58.58,0,0,0,.19,0h1.45v1.45a.73.73,0,0,0,.73.73h.73v.73a.73.73,0,0,0,.72.73v1.45h-.72a.73.73,0,0,0-.73.73v.72a.72.72,0,0,0,.73.73H21V26a.73.73,0,0,0,.73.72h.73v2.91a.73.73,0,0,0,.72.73h.73a.73.73,0,0,0,.73-.73V28.13h.73a.73.73,0,0,0,.72-.73V24.49h.73A.73.73,0,0,0,27.51,23.76Z"/><path class="cls-2" d="M37,24.49a.73.73,0,0,0-.73-.73h-.72V22.31h2.18v-3a10.55,10.55,0,0,0-2.76-5.72H31.14a.72.72,0,0,0-.72.72v1.46a.72.72,0,0,0,.72.72h.73V18H29.69a.73.73,0,0,0-.73.72v.73a.73.73,0,0,0,.73.73h.73v2.18h-.73A.73.73,0,0,0,29,23v.72a.73.73,0,0,0,.73.73h.73V26a.72.72,0,0,0,.72.72h.73v1.46a.73.73,0,0,0,.73.72h1.59a10.77,10.77,0,0,0,1.32-1.38V26h.72a.74.74,0,0,0,.33-.09A8.86,8.86,0,0,0,37,25Z"/></svg>