<svg id="Layer_1" data-name="Layer 1" xmlns="http://www.w3.org/2000/svg" width="48" height="48" viewBox="0 0 48 48"><defs><style>.cls-1{fill:#68c3cc;}.cls-2{fill:#fff;}</style></defs><rect class="cls-1" width="48" height="48" rx="6.36"/><path class="cls-2" d="M18.15,23.58a6.44,6.44,0,0,0-3.84-1.28,6.55,6.55,0,0,0-6.5,6.45v2.92h6.82v-.88A9.32,9.32,0,0,1,18.15,23.58Z"/><path class="cls-2" d="M40.19,31.67V28.75a6.55,6.55,0,0,0-6.5-6.45,6.44,6.44,0,0,0-3.84,1.28,9.32,9.32,0,0,1,3.52,7.21v.88Z"/><path class="cls-2" d="M28.62,24.75a7.67,7.67,0,0,0-12.29,6v3.43H31.67V30.79A7.62,7.62,0,0,0,28.62,24.75Z"/><circle class="cls-2" cx="24" cy="17.18" r="4.26"/><circle class="cls-2" cx="14.63" cy="17.18" r="3.41"/><circle class="cls-2" cx="33.37" cy="17.18" r="3.41"/><path class="cls-2" d="M6.48,11.7A1.28,1.28,0,0,0,8.29,9.89L5.73,7.33a1.28,1.28,0,1,0-1.8,1.81Z"/><path class="cls-2" d="M41.52,11.7l2.55-2.56a1.28,1.28,0,0,0,0-1.81,1.28,1.28,0,0,0-1.8,0L39.71,9.89a1.28,1.28,0,0,0,1.81,1.81Z"/><path class="cls-2" d="M7.39,35.93a1.28,1.28,0,0,0-.91.37L3.93,38.86a1.28,1.28,0,1,0,1.8,1.81l2.56-2.56a1.28,1.28,0,0,0-.9-2.18Z"/><path class="cls-2" d="M41.52,36.3a1.28,1.28,0,0,0-1.81,1.81l2.56,2.56a1.28,1.28,0,0,0,1.8,0,1.28,1.28,0,0,0,0-1.81Z"/></svg>
